<!-- icon666.com - MILLIONS vector ICONS FREE --><svg version="1.1" id="Capa_1" xmlns="http://www.w3.org/2000/svg" xmlns:xlink="http://www.w3.org/1999/xlink" x="0px" y="0px" viewBox="0 0 358.012 358.012" style="enable-background:new 0 0 358.012 358.012;" xml:space="preserve"><g><path style="fill: rgb(210, 91, 91);" d="M179.006,0C80.141,0,0,80.141,0,179.006s80.141,179.006,179.006,179.006 s179.006-80.141,179.006-179.006S277.865,0,179.006,0z M203.864,254.94H99.414v-11.934h104.45 c23.593,0,42.794-19.201,42.794-42.794c0-23.599-19.201-42.794-42.794-42.794h-8.58v-0.042l-73.005-0.352l34.363,34.369 l-8.437,8.437l-48.797-48.797l47.962-47.962l8.437,8.437l-33.588,33.588l79.091,0.376v0.012h2.548 c30.18,0,54.728,24.554,54.728,54.728C258.592,230.393,234.044,254.94,203.864,254.94z" fill="#010002"></path></g></svg>